<svg width="159" height="45" viewBox="0 0 159 45" fill="none" xmlns="http://www.w3.org/2000/svg">
<path d="M61.7259 15.0205H56.7689L55.7318 18H53.4203L58.2543 5.20312H60.2494L65.0921 18H62.7718L61.7259 15.0205ZM57.3929 13.2275H61.1019L59.2474 7.91895L57.3929 13.2275ZM68.6166 18H66.4808V4.5H68.6166V18ZM75.138 18.1758C73.7845 18.1758 72.6859 17.751 71.8421 16.9014C71.0043 16.0459 70.5853 14.9092 70.5853 13.4912V13.2275C70.5853 12.2783 70.767 11.4316 71.1302 10.6875C71.4994 9.9375 72.015 9.35449 72.6771 8.93848C73.3392 8.52246 74.0775 8.31445 74.892 8.31445C76.1869 8.31445 77.1859 8.72754 77.889 9.55371C78.598 10.3799 78.9525 11.5488 78.9525 13.0605V13.9219H72.7386C72.8031 14.707 73.0638 15.3281 73.5209 15.7852C73.9837 16.2422 74.5638 16.4707 75.2611 16.4707C76.2396 16.4707 77.0365 16.0752 77.6517 15.2842L78.8031 16.3828C78.4222 16.9512 77.9125 17.3936 77.2738 17.71C76.641 18.0205 75.9291 18.1758 75.138 18.1758ZM74.8832 10.0283C74.2972 10.0283 73.8226 10.2334 73.4593 10.6436C73.1019 11.0537 72.8734 11.625 72.7738 12.3574H76.8431V12.1992C76.7962 11.4844 76.6058 10.9453 76.2718 10.582C75.9379 10.2129 75.475 10.0283 74.8832 10.0283ZM85.597 10.4414C85.3158 10.3945 85.0257 10.3711 84.7269 10.3711C83.7484 10.3711 83.0892 10.7461 82.7494 11.4961V18H80.6136V8.49023H82.6527L82.7054 9.55371C83.2211 8.72754 83.9359 8.31445 84.85 8.31445C85.1546 8.31445 85.4066 8.35547 85.6058 8.4375L85.597 10.4414ZM90.0619 6.17871V8.49023H91.7406V10.0723H90.0619V15.3809C90.0619 15.7441 90.1322 16.0078 90.2728 16.1719C90.4193 16.3301 90.6771 16.4092 91.0462 16.4092C91.2923 16.4092 91.5414 16.3799 91.7933 16.3213V17.9736C91.307 18.1084 90.8382 18.1758 90.3871 18.1758C88.7464 18.1758 87.9261 17.2705 87.9261 15.46V10.0723H86.3617V8.49023H87.9261V6.17871H90.0619ZM99.0619 18C98.9681 17.8184 98.8861 17.5225 98.8158 17.1123C98.1361 17.8213 97.3041 18.1758 96.3197 18.1758C95.3646 18.1758 94.5853 17.9033 93.9818 17.3584C93.3783 16.8135 93.0765 16.1396 93.0765 15.3369C93.0765 14.3232 93.4515 13.5469 94.2015 13.0078C94.9574 12.4629 96.0355 12.1904 97.4359 12.1904H98.7455V11.5664C98.7455 11.0742 98.6078 10.6816 98.3324 10.3887C98.057 10.0898 97.638 9.94043 97.0755 9.94043C96.5892 9.94043 96.1908 10.0635 95.8802 10.3096C95.5697 10.5498 95.4144 10.8574 95.4144 11.2324H93.2787C93.2787 10.7109 93.4515 10.2246 93.7972 9.77344C94.1429 9.31641 94.6117 8.95898 95.2035 8.70117C95.8011 8.44336 96.4662 8.31445 97.1986 8.31445C98.3119 8.31445 99.1996 8.5957 99.8617 9.1582C100.524 9.71484 100.864 10.5 100.881 11.5137V15.8027C100.881 16.6582 101.001 17.3408 101.242 17.8506V18H99.0619ZM96.7152 16.4619C97.1371 16.4619 97.5326 16.3594 97.9017 16.1543C98.2767 15.9492 98.558 15.6738 98.7455 15.3281V13.5352H97.5941C96.8031 13.5352 96.2084 13.6729 95.8099 13.9482C95.4115 14.2236 95.2123 14.6133 95.2123 15.1172C95.2123 15.5273 95.347 15.8555 95.6166 16.1016C95.892 16.3418 96.2582 16.4619 96.7152 16.4619ZM109.582 8.49023L109.644 9.58887C110.347 8.73926 111.27 8.31445 112.412 8.31445C114.393 8.31445 115.401 9.44824 115.436 11.7158V18H113.3V11.8389C113.3 11.2354 113.168 10.79 112.905 10.5029C112.647 10.21 112.222 10.0635 111.63 10.0635C110.769 10.0635 110.127 10.4531 109.705 11.2324V18H107.57V8.49023H109.582ZM123.302 18C123.208 17.8184 123.126 17.5225 123.056 17.1123C122.376 17.8213 121.544 18.1758 120.56 18.1758C119.605 18.1758 118.826 17.9033 118.222 17.3584C117.619 16.8135 117.317 16.1396 117.317 15.3369C117.317 14.3232 117.692 13.5469 118.442 13.0078C119.198 12.4629 120.276 12.1904 121.676 12.1904H122.986V11.5664C122.986 11.0742 122.848 10.6816 122.573 10.3887C122.297 10.0898 121.878 9.94043 121.316 9.94043C120.829 9.94043 120.431 10.0635 120.12 10.3096C119.81 10.5498 119.655 10.8574 119.655 11.2324H117.519C117.519 10.7109 117.692 10.2246 118.037 9.77344C118.383 9.31641 118.852 8.95898 119.444 8.70117C120.041 8.44336 120.706 8.31445 121.439 8.31445C122.552 8.31445 123.44 8.5957 124.102 9.1582C124.764 9.71484 125.104 10.5 125.121 11.5137V15.8027C125.121 16.6582 125.242 17.3408 125.482 17.8506V18H123.302ZM120.955 16.4619C121.377 16.4619 121.773 16.3594 122.142 16.1543C122.517 15.9492 122.798 15.6738 122.986 15.3281V13.5352H121.834C121.043 13.5352 120.449 13.6729 120.05 13.9482C119.652 14.2236 119.452 14.6133 119.452 15.1172C119.452 15.5273 119.587 15.8555 119.857 16.1016C120.132 16.3418 120.498 16.4619 120.955 16.4619ZM124.735 4.69336C124.735 5.33789 124.547 5.87402 124.172 6.30176C123.803 6.72949 123.337 6.94336 122.775 6.94336C122.546 6.94336 122.347 6.91992 122.177 6.87305C122.013 6.82031 121.776 6.70605 121.465 6.53027C121.161 6.35449 120.944 6.24902 120.815 6.21387C120.692 6.17871 120.554 6.16113 120.402 6.16113C120.179 6.16113 119.989 6.24609 119.83 6.41602C119.678 6.58008 119.602 6.79687 119.602 7.06641L118.292 6.99609C118.292 6.35156 118.477 5.80957 118.846 5.37012C119.221 4.93066 119.687 4.71094 120.244 4.71094C120.577 4.71094 120.979 4.84277 121.448 5.10645C121.922 5.37012 122.312 5.50195 122.617 5.50195C122.839 5.50195 123.03 5.41992 123.188 5.25586C123.346 5.08594 123.425 4.86328 123.425 4.58789L124.735 4.69336ZM126.958 13.1572C126.958 12.2256 127.143 11.3877 127.512 10.6436C127.881 9.89355 128.4 9.31934 129.068 8.9209C129.736 8.5166 130.503 8.31445 131.37 8.31445C132.654 8.31445 133.694 8.72754 134.491 9.55371C135.293 10.3799 135.727 11.4756 135.791 12.8408L135.8 13.3418C135.8 14.2793 135.619 15.1172 135.255 15.8555C134.898 16.5938 134.382 17.165 133.708 17.5693C133.04 17.9736 132.267 18.1758 131.388 18.1758C130.046 18.1758 128.971 17.7305 128.162 16.8398C127.36 15.9434 126.958 14.751 126.958 13.2627V13.1572ZM129.094 13.3418C129.094 14.3203 129.296 15.0879 129.701 15.6445C130.105 16.1953 130.667 16.4707 131.388 16.4707C132.109 16.4707 132.668 16.1895 133.067 15.627C133.471 15.0645 133.673 14.2412 133.673 13.1572C133.673 12.1963 133.465 11.4346 133.049 10.8721C132.639 10.3096 132.079 10.0283 131.37 10.0283C130.673 10.0283 130.119 10.3066 129.709 10.8633C129.299 11.4141 129.094 12.2402 129.094 13.3418ZM66.3666 39C66.2728 38.8184 66.1908 38.5225 66.1205 38.1123C65.4408 38.8213 64.6087 39.1758 63.6244 39.1758C62.6693 39.1758 61.89 38.9033 61.2865 38.3584C60.683 37.8135 60.3812 37.1396 60.3812 36.3369C60.3812 35.3232 60.7562 34.5469 61.5062 34.0078C62.2621 33.4629 63.3402 33.1904 64.7406 33.1904H66.0502V32.5664C66.0502 32.0742 65.9125 31.6816 65.6371 31.3887C65.3617 31.0898 64.9427 30.9404 64.3802 30.9404C63.8939 30.9404 63.4955 31.0635 63.1849 31.3096C62.8744 31.5498 62.7191 31.8574 62.7191 32.2324H60.5834C60.5834 31.7109 60.7562 31.2246 61.1019 30.7734C61.4476 30.3164 61.9164 29.959 62.5082 29.7012C63.1058 29.4434 63.7709 29.3145 64.5033 29.3145C65.6166 29.3145 66.5043 29.5957 67.1664 30.1582C67.8285 30.7148 68.1683 31.5 68.1859 32.5137V36.8027C68.1859 37.6582 68.306 38.3408 68.5462 38.8506V39H66.3666ZM64.0199 37.4619C64.4418 37.4619 64.8373 37.3594 65.2064 37.1543C65.5814 36.9492 65.8627 36.6738 66.0502 36.3281V34.5352H64.8988C64.1078 34.5352 63.513 34.6729 63.1146 34.9482C62.7162 35.2236 62.517 35.6133 62.517 36.1172C62.517 36.5273 62.6517 36.8555 62.9212 37.1016C63.1966 37.3418 63.5629 37.4619 64.0199 37.4619ZM73.099 27.1787V29.4902H74.7777V31.0723H73.099V36.3809C73.099 36.7441 73.1693 37.0078 73.3099 37.1719C73.4564 37.3301 73.7142 37.4092 74.0834 37.4092C74.3295 37.4092 74.5785 37.3799 74.8304 37.3213V38.9736C74.3441 39.1084 73.8754 39.1758 73.4242 39.1758C71.7836 39.1758 70.9632 38.2705 70.9632 36.46V31.0723H69.3988V29.4902H70.9632V27.1787H73.099ZM80.6048 39.1758C79.2513 39.1758 78.1527 38.751 77.3089 37.9014C76.4711 37.0459 76.0521 35.9092 76.0521 34.4912V34.2275C76.0521 33.2783 76.2337 32.4316 76.597 31.6875C76.9662 30.9375 77.4818 30.3545 78.1439 29.9385C78.806 29.5225 79.5443 29.3145 80.3587 29.3145C81.6537 29.3145 82.6527 29.7275 83.3558 30.5537C84.0648 31.3799 84.4193 32.5488 84.4193 34.0605V34.9219H78.2054C78.2699 35.707 78.5306 36.3281 78.9877 36.7852C79.4505 37.2422 80.0306 37.4707 80.7279 37.4707C81.7064 37.4707 82.5033 37.0752 83.1185 36.2842L84.2699 37.3828C83.889 37.9512 83.3793 38.3936 82.7406 38.71C82.1078 39.0205 81.3959 39.1758 80.6048 39.1758ZM80.35 31.0283C79.764 31.0283 79.2894 31.2334 78.9261 31.6436C78.5687 32.0537 78.3402 32.625 78.2406 33.3574H82.3099V33.1992C82.263 32.4844 82.0726 31.9453 81.7386 31.582C81.4046 31.2129 80.9418 31.0283 80.35 31.0283ZM88.0668 29.4902L88.1283 30.5889C88.8314 29.7393 89.7543 29.3145 90.8968 29.3145C92.8773 29.3145 93.8851 30.4482 93.9203 32.7158V39H91.7845V32.8389C91.7845 32.2354 91.6527 31.79 91.389 31.5029C91.1312 31.21 90.7064 31.0635 90.1146 31.0635C89.2533 31.0635 88.6117 31.4531 88.1898 32.2324V39H86.0541V29.4902H88.0668ZM95.7045 34.1748C95.7045 32.71 96.0443 31.5352 96.724 30.6504C97.4037 29.7598 98.3148 29.3145 99.4574 29.3145C100.465 29.3145 101.28 29.666 101.901 30.3691V25.5H104.036V39H102.103L101.997 38.0156C101.359 38.7891 100.506 39.1758 99.4398 39.1758C98.3265 39.1758 97.4242 38.7275 96.7328 37.8311C96.0472 36.9346 95.7045 35.7158 95.7045 34.1748ZM97.8402 34.3594C97.8402 35.3262 98.0248 36.082 98.3939 36.627C98.7689 37.166 99.2992 37.4355 99.9847 37.4355C100.858 37.4355 101.496 37.0459 101.901 36.2666V32.2061C101.508 31.4443 100.875 31.0635 100.002 31.0635C99.3109 31.0635 98.7777 31.3389 98.4027 31.8896C98.0277 32.4346 97.8402 33.2578 97.8402 34.3594ZM108.536 39H106.401V29.4902H108.536V39ZM106.269 27.0205C106.269 26.6924 106.371 26.4199 106.577 26.2031C106.787 25.9863 107.086 25.8779 107.473 25.8779C107.86 25.8779 108.159 25.9863 108.369 26.2031C108.58 26.4199 108.686 26.6924 108.686 27.0205C108.686 27.3428 108.58 27.6123 108.369 27.8291C108.159 28.04 107.86 28.1455 107.473 28.1455C107.086 28.1455 106.787 28.04 106.577 27.8291C106.371 27.6123 106.269 27.3428 106.269 27.0205ZM110.47 34.1748C110.47 32.71 110.81 31.5352 111.49 30.6504C112.169 29.7598 113.08 29.3145 114.223 29.3145C115.231 29.3145 116.045 29.666 116.666 30.3691V25.5H118.802V39H116.869L116.763 38.0156C116.124 38.7891 115.272 39.1758 114.205 39.1758C113.092 39.1758 112.19 38.7275 111.498 37.8311C110.813 36.9346 110.47 35.7158 110.47 34.1748ZM112.606 34.3594C112.606 35.3262 112.79 36.082 113.16 36.627C113.535 37.166 114.065 37.4355 114.75 37.4355C115.623 37.4355 116.262 37.0459 116.666 36.2666V32.2061C116.274 31.4443 115.641 31.0635 114.768 31.0635C114.077 31.0635 113.543 31.3389 113.168 31.8896C112.793 32.4346 112.606 33.2578 112.606 34.3594ZM120.63 34.1572C120.63 33.2256 120.815 32.3877 121.184 31.6436C121.553 30.8936 122.072 30.3193 122.74 29.9209C123.408 29.5166 124.175 29.3145 125.042 29.3145C126.326 29.3145 127.366 29.7275 128.162 30.5537C128.965 31.3799 129.399 32.4756 129.463 33.8408L129.472 34.3418C129.472 35.2793 129.29 36.1172 128.927 36.8555C128.57 37.5938 128.054 38.165 127.38 38.5693C126.712 38.9736 125.939 39.1758 125.06 39.1758C123.718 39.1758 122.643 38.7305 121.834 37.8398C121.032 36.9434 120.63 35.751 120.63 34.2627V34.1572ZM122.766 34.3418C122.766 35.3203 122.968 36.0879 123.372 36.6445C123.777 37.1953 124.339 37.4707 125.06 37.4707C125.781 37.4707 126.34 37.1895 126.739 36.627C127.143 36.0645 127.345 35.2412 127.345 34.1572C127.345 33.1963 127.137 32.4346 126.721 31.8721C126.311 31.3096 125.751 31.0283 125.042 31.0283C124.345 31.0283 123.791 31.3066 123.381 31.8633C122.971 32.4141 122.766 33.2402 122.766 34.3418Z" fill="#1F4373"/>
<g clip-path="url(#clip0)">
<path d="M25.6447 17.5C25.6447 26.0448 15.3868 37.5 15.3868 37.5C15.3868 37.5 5.12891 26.2318 5.12891 17.5C5.12891 11.9772 9.72161 7.5 15.387 7.5C21.0524 7.5 25.6451 11.9772 25.6451 17.5H25.6447Z" fill="#D9042B"/>
<path d="M15.3869 23.8922C19.1177 23.8922 22.1422 20.9438 22.1422 17.3068C22.1422 13.6699 19.1177 10.7215 15.3869 10.7215C11.656 10.7215 8.63159 13.6699 8.63159 17.3068C8.63159 20.9438 11.656 23.8922 15.3869 23.8922Z" fill="#EEEFEE"/>
</g>
<defs>
<clipPath id="clip0">
<rect width="30.7742" height="30" fill="white" transform="translate(0 7.5)"/>
</clipPath>
</defs>
</svg>
