<svg width="159" height="45" viewBox="0 0 159 45" fill="none" xmlns="http://www.w3.org/2000/svg">
<path d="M77.9464 15.0205H72.9894L71.9522 18H69.6407L74.4747 5.20312H76.4698L81.3126 18H78.9923L77.9464 15.0205ZM73.6134 13.2275H77.3224L75.4679 7.91895L73.6134 13.2275ZM84.837 18H82.7013V4.5H84.837V18ZM91.3585 18.1758C90.005 18.1758 88.9063 17.751 88.0626 16.9014C87.2247 16.0459 86.8058 14.9092 86.8058 13.4912V13.2275C86.8058 12.2783 86.9874 11.4316 87.3507 10.6875C87.7198 9.9375 88.2355 9.35449 88.8976 8.93848C89.5597 8.52246 90.298 8.31445 91.1124 8.31445C92.4073 8.31445 93.4063 8.72754 94.1095 9.55371C94.8185 10.3799 95.173 11.5488 95.173 13.0605V13.9219H88.9591C89.0235 14.707 89.2843 15.3281 89.7413 15.7852C90.2042 16.2422 90.7843 16.4707 91.4815 16.4707C92.4601 16.4707 93.2569 16.0752 93.8722 15.2842L95.0235 16.3828C94.6427 16.9512 94.1329 17.3936 93.4942 17.71C92.8614 18.0205 92.1495 18.1758 91.3585 18.1758ZM91.1036 10.0283C90.5177 10.0283 90.0431 10.2334 89.6798 10.6436C89.3224 11.0537 89.0938 11.625 88.9942 12.3574H93.0636V12.1992C93.0167 11.4844 92.8263 10.9453 92.4923 10.582C92.1583 10.2129 91.6954 10.0283 91.1036 10.0283ZM101.817 10.4414C101.536 10.3945 101.246 10.3711 100.947 10.3711C99.9688 10.3711 99.3097 10.7461 98.9698 11.4961V18H96.8341V8.49023H98.8731L98.9259 9.55371C99.4415 8.72754 100.156 8.31445 101.07 8.31445C101.375 8.31445 101.627 8.35547 101.826 8.4375L101.817 10.4414ZM106.282 6.17871V8.49023H107.961V10.0723H106.282V15.3809C106.282 15.7441 106.353 16.0078 106.493 16.1719C106.64 16.3301 106.898 16.4092 107.267 16.4092C107.513 16.4092 107.762 16.3799 108.014 16.3213V17.9736C107.527 18.1084 107.059 18.1758 106.608 18.1758C104.967 18.1758 104.147 17.2705 104.147 15.46V10.0723H102.582V8.49023H104.147V6.17871H106.282ZM115.282 18C115.189 17.8184 115.107 17.5225 115.036 17.1123C114.357 17.8213 113.525 18.1758 112.54 18.1758C111.585 18.1758 110.806 17.9033 110.202 17.3584C109.599 16.8135 109.297 16.1396 109.297 15.3369C109.297 14.3232 109.672 13.5469 110.422 13.0078C111.178 12.4629 112.256 12.1904 113.656 12.1904H114.966V11.5664C114.966 11.0742 114.828 10.6816 114.553 10.3887C114.277 10.0898 113.858 9.94043 113.296 9.94043C112.81 9.94043 112.411 10.0635 112.101 10.3096C111.79 10.5498 111.635 10.8574 111.635 11.2324H109.499C109.499 10.7109 109.672 10.2246 110.018 9.77344C110.363 9.31641 110.832 8.95898 111.424 8.70117C112.022 8.44336 112.687 8.31445 113.419 8.31445C114.532 8.31445 115.42 8.5957 116.082 9.1582C116.744 9.71484 117.084 10.5 117.102 11.5137V15.8027C117.102 16.6582 117.222 17.3408 117.462 17.8506V18H115.282ZM112.936 16.4619C113.358 16.4619 113.753 16.3594 114.122 16.1543C114.497 15.9492 114.778 15.6738 114.966 15.3281V13.5352H113.815C113.024 13.5352 112.429 13.6729 112.03 13.9482C111.632 14.2236 111.433 14.6133 111.433 15.1172C111.433 15.5273 111.567 15.8555 111.837 16.1016C112.112 16.3418 112.479 16.4619 112.936 16.4619ZM58.4435 39V31.0723H56.9933V29.4902H58.4435V28.8398C58.4493 28.0957 58.6075 27.457 58.9181 26.9238C59.2286 26.3906 59.6681 25.9893 60.2364 25.7197C60.8048 25.4502 61.4874 25.3154 62.2843 25.3154C62.753 25.3154 63.2013 25.3652 63.629 25.4648C64.0626 25.5645 64.5108 25.6904 64.9737 25.8428L64.6485 27.6094C63.8399 27.3281 63.1017 27.1875 62.4337 27.1875C61.7833 27.1875 61.3116 27.3311 61.0187 27.6182C60.7257 27.8994 60.5792 28.3242 60.5792 28.8926V29.4902H62.4513V31.0723H60.5792V39H58.4435ZM65.9845 39H63.8487V29.4902H65.9845V39ZM70.3351 29.4902L70.3966 30.5889C71.0997 29.7393 72.0226 29.3145 73.1651 29.3145C75.1456 29.3145 76.1534 30.4482 76.1886 32.7158V39H74.0528V32.8389C74.0528 32.2354 73.921 31.79 73.6573 31.5029C73.3995 31.21 72.9747 31.0635 72.3829 31.0635C71.5216 31.0635 70.88 31.4531 70.4581 32.2324V39H68.3224V29.4902H70.3351ZM84.0548 39C83.961 38.8184 83.879 38.5225 83.8087 38.1123C83.129 38.8213 82.297 39.1758 81.3126 39.1758C80.3575 39.1758 79.5782 38.9033 78.9747 38.3584C78.3712 37.8135 78.0694 37.1396 78.0694 36.3369C78.0694 35.3232 78.4444 34.5469 79.1944 34.0078C79.9503 33.4629 81.0284 33.1904 82.4288 33.1904H83.7384V32.5664C83.7384 32.0742 83.6007 31.6816 83.3253 31.3887C83.0499 31.0898 82.631 30.9404 82.0685 30.9404C81.5821 30.9404 81.1837 31.0635 80.8731 31.3096C80.5626 31.5498 80.4073 31.8574 80.4073 32.2324H78.2716C78.2716 31.7109 78.4444 31.2246 78.7901 30.7734C79.1358 30.3164 79.6046 29.959 80.1964 29.7012C80.794 29.4434 81.4591 29.3145 82.1915 29.3145C83.3048 29.3145 84.1925 29.5957 84.8546 30.1582C85.5167 30.7148 85.8565 31.5 85.8741 32.5137V36.8027C85.8741 37.6582 85.9942 38.3408 86.2345 38.8506V39H84.0548ZM81.7081 37.4619C82.13 37.4619 82.5255 37.3594 82.8946 37.1543C83.2696 36.9492 83.5509 36.6738 83.7384 36.3281V34.5352H82.587C81.796 34.5352 81.2013 34.6729 80.8028 34.9482C80.4044 35.2236 80.2052 35.6133 80.2052 36.1172C80.2052 36.5273 80.3399 36.8555 80.6095 37.1016C80.8849 37.3418 81.2511 37.4619 81.7081 37.4619ZM90.3829 39H88.2472V25.5H90.3829V39ZM94.9884 39H92.8526V29.4902H94.9884V39ZM92.7208 27.0205C92.7208 26.6924 92.8233 26.4199 93.0284 26.2031C93.2394 25.9863 93.5382 25.8779 93.9249 25.8779C94.3116 25.8779 94.6105 25.9863 94.8214 26.2031C95.0323 26.4199 95.1378 26.6924 95.1378 27.0205C95.1378 27.3428 95.0323 27.6123 94.8214 27.8291C94.6105 28.04 94.3116 28.1455 93.9249 28.1455C93.5382 28.1455 93.2394 28.04 93.0284 27.8291C92.8233 27.6123 92.7208 27.3428 92.7208 27.0205ZM99.6026 37.2949H104.665V39H96.9483V37.6025L101.774 31.2129H97.0362V29.4902H104.481V30.8438L99.6026 37.2949ZM112.057 39C111.963 38.8184 111.881 38.5225 111.811 38.1123C111.131 38.8213 110.299 39.1758 109.315 39.1758C108.359 39.1758 107.58 38.9033 106.977 38.3584C106.373 37.8135 106.071 37.1396 106.071 36.3369C106.071 35.3232 106.446 34.5469 107.196 34.0078C107.952 33.4629 109.03 33.1904 110.431 33.1904H111.74V32.5664C111.74 32.0742 111.603 31.6816 111.327 31.3887C111.052 31.0898 110.633 30.9404 110.07 30.9404C109.584 30.9404 109.186 31.0635 108.875 31.3096C108.565 31.5498 108.409 31.8574 108.409 32.2324H106.274C106.274 31.7109 106.446 31.2246 106.792 30.7734C107.138 30.3164 107.607 29.959 108.198 29.7012C108.796 29.4434 109.461 29.3145 110.193 29.3145C111.307 29.3145 112.194 29.5957 112.857 30.1582C113.519 30.7148 113.858 31.5 113.876 32.5137V36.8027C113.876 37.6582 113.996 38.3408 114.236 38.8506V39H112.057ZM109.71 37.4619C110.132 37.4619 110.527 37.3594 110.897 37.1543C111.272 36.9492 111.553 36.6738 111.74 36.3281V34.5352H110.589C109.798 34.5352 109.203 34.6729 108.805 34.9482C108.406 35.2236 108.207 35.6133 108.207 36.1172C108.207 36.5273 108.342 36.8555 108.611 37.1016C108.887 37.3418 109.253 37.4619 109.71 37.4619ZM115.713 34.1748C115.713 32.71 116.053 31.5352 116.733 30.6504C117.412 29.7598 118.323 29.3145 119.466 29.3145C120.474 29.3145 121.288 29.666 121.909 30.3691V25.5H124.045V39H122.111L122.006 38.0156C121.367 38.7891 120.515 39.1758 119.448 39.1758C118.335 39.1758 117.433 38.7275 116.741 37.8311C116.056 36.9346 115.713 35.7158 115.713 34.1748ZM117.849 34.3594C117.849 35.3262 118.033 36.082 118.402 36.627C118.777 37.166 119.308 37.4355 119.993 37.4355C120.866 37.4355 121.505 37.0459 121.909 36.2666V32.2061C121.517 31.4443 120.884 31.0635 120.011 31.0635C119.319 31.0635 118.786 31.3389 118.411 31.8896C118.036 32.4346 117.849 33.2578 117.849 34.3594ZM125.873 34.1572C125.873 33.2256 126.058 32.3877 126.427 31.6436C126.796 30.8936 127.315 30.3193 127.983 29.9209C128.65 29.5166 129.418 29.3145 130.285 29.3145C131.568 29.3145 132.608 29.7275 133.405 30.5537C134.208 31.3799 134.642 32.4756 134.706 33.8408L134.715 34.3418C134.715 35.2793 134.533 36.1172 134.17 36.8555C133.813 37.5938 133.297 38.165 132.623 38.5693C131.955 38.9736 131.182 39.1758 130.303 39.1758C128.961 39.1758 127.886 38.7305 127.077 37.8398C126.275 36.9434 125.873 35.751 125.873 34.2627V34.1572ZM128.009 34.3418C128.009 35.3203 128.211 36.0879 128.615 36.6445C129.02 37.1953 129.582 37.4707 130.303 37.4707C131.024 37.4707 131.583 37.1895 131.982 36.627C132.386 36.0645 132.588 35.2412 132.588 34.1572C132.588 33.1963 132.38 32.4346 131.964 31.8721C131.554 31.3096 130.994 31.0283 130.285 31.0283C129.588 31.0283 129.034 31.3066 128.624 31.8633C128.214 32.4141 128.009 33.2402 128.009 34.3418Z" fill="#1F4373"/>
<g clip-path="url(#clip0)">
<path d="M25.1577 18C25.1577 26.5448 15.0946 38 15.0946 38C15.0946 38 5.03149 26.7318 5.03149 18C5.03149 12.4772 9.537 8 15.0948 8C20.6527 8 25.1581 12.4772 25.1581 18H25.1577Z" fill="#345580"/>
<path d="M15.0946 24.3922C18.7546 24.3922 21.7216 21.4438 21.7216 17.8068C21.7216 14.1699 18.7546 11.2215 15.0946 11.2215C11.4346 11.2215 8.46753 14.1699 8.46753 17.8068C8.46753 21.4438 11.4346 24.3922 15.0946 24.3922Z" fill="#EEEFEE"/>
</g>
<defs>
<clipPath id="clip0">
<rect width="30.1899" height="30" fill="white" transform="translate(0 8)"/>
</clipPath>
</defs>
</svg>
