<svg width="159" height="45" viewBox="0 0 159 45" fill="none" xmlns="http://www.w3.org/2000/svg">
<path d="M79.7869 15.0205H74.8299L73.7928 18H71.4812L76.3152 5.20312H78.3103L83.1531 18H80.8328L79.7869 15.0205ZM75.4539 13.2275H79.1629L77.3084 7.91895L75.4539 13.2275ZM86.6775 18H84.5418V4.5H86.6775V18ZM93.199 18.1758C91.8455 18.1758 90.7469 17.751 89.9031 16.9014C89.0652 16.0459 88.6463 14.9092 88.6463 13.4912V13.2275C88.6463 12.2783 88.8279 11.4316 89.1912 10.6875C89.5603 9.9375 90.076 9.35449 90.7381 8.93848C91.4002 8.52246 92.1385 8.31445 92.9529 8.31445C94.2478 8.31445 95.2469 8.72754 95.95 9.55371C96.659 10.3799 97.0135 11.5488 97.0135 13.0605V13.9219H90.7996C90.864 14.707 91.1248 15.3281 91.5818 15.7852C92.0447 16.2422 92.6248 16.4707 93.3221 16.4707C94.3006 16.4707 95.0974 16.0752 95.7127 15.2842L96.864 16.3828C96.4832 16.9512 95.9734 17.3936 95.3348 17.71C94.7019 18.0205 93.99 18.1758 93.199 18.1758ZM92.9441 10.0283C92.3582 10.0283 91.8836 10.2334 91.5203 10.6436C91.1629 11.0537 90.9344 11.625 90.8348 12.3574H94.9041V12.1992C94.8572 11.4844 94.6668 10.9453 94.3328 10.582C93.9988 10.2129 93.5359 10.0283 92.9441 10.0283ZM103.658 10.4414C103.377 10.3945 103.087 10.3711 102.788 10.3711C101.809 10.3711 101.15 10.7461 100.81 11.4961V18H98.6746V8.49023H100.714L100.766 9.55371C101.282 8.72754 101.997 8.31445 102.911 8.31445C103.216 8.31445 103.468 8.35547 103.667 8.4375L103.658 10.4414ZM108.123 6.17871V8.49023H109.802V10.0723H108.123V15.3809C108.123 15.7441 108.193 16.0078 108.334 16.1719C108.48 16.3301 108.738 16.4092 109.107 16.4092C109.353 16.4092 109.602 16.3799 109.854 16.3213V17.9736C109.368 18.1084 108.899 18.1758 108.448 18.1758C106.807 18.1758 105.987 17.2705 105.987 15.46V10.0723H104.423V8.49023H105.987V6.17871H108.123ZM117.123 18C117.029 17.8184 116.947 17.5225 116.877 17.1123C116.197 17.8213 115.365 18.1758 114.381 18.1758C113.426 18.1758 112.646 17.9033 112.043 17.3584C111.439 16.8135 111.137 16.1396 111.137 15.3369C111.137 14.3232 111.512 13.5469 112.262 13.0078C113.018 12.4629 114.096 12.1904 115.497 12.1904H116.806V11.5664C116.806 11.0742 116.669 10.6816 116.393 10.3887C116.118 10.0898 115.699 9.94043 115.137 9.94043C114.65 9.94043 114.252 10.0635 113.941 10.3096C113.631 10.5498 113.475 10.8574 113.475 11.2324H111.34C111.34 10.7109 111.512 10.2246 111.858 9.77344C112.204 9.31641 112.673 8.95898 113.264 8.70117C113.862 8.44336 114.527 8.31445 115.26 8.31445C116.373 8.31445 117.261 8.5957 117.923 9.1582C118.585 9.71484 118.925 10.5 118.942 11.5137V15.8027C118.942 16.6582 119.062 17.3408 119.303 17.8506V18H117.123ZM114.776 16.4619C115.198 16.4619 115.594 16.3594 115.963 16.1543C116.338 15.9492 116.619 15.6738 116.806 15.3281V13.5352H115.655C114.864 13.5352 114.269 13.6729 113.871 13.9482C113.472 14.2236 113.273 14.6133 113.273 15.1172C113.273 15.5273 113.408 15.8555 113.678 16.1016C113.953 16.3418 114.319 16.4619 114.776 16.4619ZM56.4256 31.4414C56.1443 31.3945 55.8543 31.3711 55.5555 31.3711C54.5769 31.3711 53.9178 31.7461 53.5779 32.4961V39H51.4422V29.4902H53.4812L53.534 30.5537C54.0496 29.7275 54.7644 29.3145 55.6785 29.3145C55.9832 29.3145 56.2351 29.3555 56.4344 29.4375L56.4256 31.4414ZM61.7869 39.1758C60.4334 39.1758 59.3348 38.751 58.491 37.9014C57.6531 37.0459 57.2342 35.9092 57.2342 34.4912V34.2275C57.2342 33.2783 57.4158 32.4316 57.7791 31.6875C58.1482 30.9375 58.6639 30.3545 59.326 29.9385C59.9881 29.5225 60.7264 29.3145 61.5408 29.3145C62.8357 29.3145 63.8348 29.7275 64.5379 30.5537C65.2469 31.3799 65.6014 32.5488 65.6014 34.0605V34.9219H59.3875C59.4519 35.707 59.7127 36.3281 60.1697 36.7852C60.6326 37.2422 61.2127 37.4707 61.9099 37.4707C62.8885 37.4707 63.6853 37.0752 64.3006 36.2842L65.4519 37.3828C65.0711 37.9512 64.5613 38.3936 63.9226 38.71C63.2898 39.0205 62.5779 39.1758 61.7869 39.1758ZM61.532 31.0283C60.9461 31.0283 60.4715 31.2334 60.1082 31.6436C59.7508 32.0537 59.5223 32.625 59.4226 33.3574H63.492V33.1992C63.4451 32.4844 63.2547 31.9453 62.9207 31.582C62.5867 31.2129 62.1238 31.0283 61.532 31.0283ZM72.5974 36.416C72.5974 36.0352 72.4392 35.7451 72.1228 35.5459C71.8123 35.3467 71.2937 35.1709 70.5672 35.0186C69.8406 34.8662 69.2342 34.6729 68.7478 34.4385C67.6814 33.9229 67.1482 33.1758 67.1482 32.1973C67.1482 31.377 67.4939 30.6914 68.1853 30.1406C68.8767 29.5898 69.7556 29.3145 70.8221 29.3145C71.9588 29.3145 72.8758 29.5957 73.573 30.1582C74.2762 30.7207 74.6277 31.4502 74.6277 32.3467H72.492C72.492 31.9365 72.3396 31.5967 72.0349 31.3271C71.7303 31.0518 71.326 30.9141 70.8221 30.9141C70.3533 30.9141 69.9695 31.0225 69.6707 31.2393C69.3777 31.4561 69.2312 31.7461 69.2312 32.1094C69.2312 32.4375 69.3689 32.6924 69.6443 32.874C69.9197 33.0557 70.4764 33.2402 71.3142 33.4277C72.1521 33.6094 72.8084 33.8291 73.283 34.0869C73.7635 34.3389 74.118 34.6436 74.3465 35.001C74.5808 35.3584 74.698 35.792 74.698 36.3018C74.698 37.1572 74.3435 37.8516 73.6346 38.3848C72.9256 38.9121 71.9969 39.1758 70.8484 39.1758C70.0691 39.1758 69.3748 39.0352 68.7654 38.7539C68.156 38.4727 67.6814 38.0859 67.3416 37.5938C67.0017 37.1016 66.8318 36.5713 66.8318 36.0029H68.906C68.9353 36.5068 69.1258 36.8965 69.4773 37.1719C69.8289 37.4414 70.2947 37.5762 70.8748 37.5762C71.4373 37.5762 71.865 37.4707 72.158 37.2598C72.451 37.043 72.5974 36.7617 72.5974 36.416ZM84.8933 34.3418C84.8933 35.8125 84.5594 36.9873 83.8914 37.8662C83.2234 38.7393 82.3269 39.1758 81.2019 39.1758C80.159 39.1758 79.324 38.833 78.6971 38.1475V42.6562H76.5613V29.4902H78.5301L78.618 30.457C79.2449 29.6953 80.0974 29.3145 81.1756 29.3145C82.3357 29.3145 83.2439 29.748 83.9002 30.6152C84.5623 31.4766 84.8933 32.6748 84.8933 34.21V34.3418ZM82.7664 34.1572C82.7664 33.208 82.576 32.4551 82.1951 31.8984C81.8201 31.3418 81.281 31.0635 80.5779 31.0635C79.7049 31.0635 79.0779 31.4238 78.6971 32.1445V36.3633C79.0838 37.1016 79.7166 37.4707 80.5955 37.4707C81.2752 37.4707 81.8055 37.1982 82.1863 36.6533C82.573 36.1025 82.7664 35.2705 82.7664 34.1572ZM86.3084 34.1572C86.3084 33.2256 86.493 32.3877 86.8621 31.6436C87.2312 30.8936 87.7498 30.3193 88.4178 29.9209C89.0857 29.5166 89.8533 29.3145 90.7205 29.3145C92.0037 29.3145 93.0437 29.7275 93.8406 30.5537C94.6433 31.3799 95.0769 32.4756 95.1414 33.8408L95.1502 34.3418C95.1502 35.2793 94.9685 36.1172 94.6053 36.8555C94.2478 37.5938 93.7322 38.165 93.0584 38.5693C92.3904 38.9736 91.617 39.1758 90.7381 39.1758C89.3963 39.1758 88.3211 38.7305 87.5125 37.8398C86.7098 36.9434 86.3084 35.751 86.3084 34.2627V34.1572ZM88.4441 34.3418C88.4441 35.3203 88.6463 36.0879 89.0506 36.6445C89.4549 37.1953 90.0174 37.4707 90.7381 37.4707C91.4588 37.4707 92.0183 37.1895 92.4168 36.627C92.8211 36.0645 93.0232 35.2412 93.0232 34.1572C93.0232 33.1963 92.8152 32.4346 92.3992 31.8721C91.989 31.3096 91.4295 31.0283 90.7205 31.0283C90.0232 31.0283 89.4695 31.3066 89.0594 31.8633C88.6492 32.4141 88.4441 33.2402 88.4441 34.3418ZM98.9383 29.4902L98.9998 30.5889C99.7029 29.7393 100.626 29.3145 101.768 29.3145C103.749 29.3145 104.757 30.4482 104.792 32.7158V39H102.656V32.8389C102.656 32.2354 102.524 31.79 102.261 31.5029C102.003 31.21 101.578 31.0635 100.986 31.0635C100.125 31.0635 99.4832 31.4531 99.0613 32.2324V39H96.9256V29.4902H98.9383ZM106.576 34.1748C106.576 32.71 106.916 31.5352 107.595 30.6504C108.275 29.7598 109.186 29.3145 110.329 29.3145C111.337 29.3145 112.151 29.666 112.772 30.3691V25.5H114.908V39H112.974L112.869 38.0156C112.23 38.7891 111.378 39.1758 110.311 39.1758C109.198 39.1758 108.296 38.7275 107.604 37.8311C106.919 36.9346 106.576 35.7158 106.576 34.1748ZM108.712 34.3594C108.712 35.3262 108.896 36.082 109.265 36.627C109.64 37.166 110.171 37.4355 110.856 37.4355C111.729 37.4355 112.368 37.0459 112.772 36.2666V32.2061C112.38 31.4443 111.747 31.0635 110.874 31.0635C110.182 31.0635 109.649 31.3389 109.274 31.8896C108.899 32.4346 108.712 33.2578 108.712 34.3594ZM119.408 39H117.272V29.4902H119.408V39ZM117.14 27.0205C117.14 26.6924 117.243 26.4199 117.448 26.2031C117.659 25.9863 117.958 25.8779 118.345 25.8779C118.731 25.8779 119.03 25.9863 119.241 26.2031C119.452 26.4199 119.557 26.6924 119.557 27.0205C119.557 27.3428 119.452 27.6123 119.241 27.8291C119.03 28.04 118.731 28.1455 118.345 28.1455C117.958 28.1455 117.659 28.04 117.448 27.8291C117.243 27.6123 117.14 27.3428 117.14 27.0205ZM121.342 34.1748C121.342 32.71 121.681 31.5352 122.361 30.6504C123.041 29.7598 123.952 29.3145 125.095 29.3145C126.102 29.3145 126.917 29.666 127.538 30.3691V25.5H129.674V39H127.74L127.635 38.0156C126.996 38.7891 126.143 39.1758 125.077 39.1758C123.964 39.1758 123.061 38.7275 122.37 37.8311C121.684 36.9346 121.342 35.7158 121.342 34.1748ZM123.477 34.3594C123.477 35.3262 123.662 36.082 124.031 36.627C124.406 37.166 124.936 37.4355 125.622 37.4355C126.495 37.4355 127.134 37.0459 127.538 36.2666V32.2061C127.145 31.4443 126.512 31.0635 125.639 31.0635C124.948 31.0635 124.415 31.3389 124.04 31.8896C123.665 32.4346 123.477 33.2578 123.477 34.3594ZM131.502 34.1572C131.502 33.2256 131.686 32.3877 132.055 31.6436C132.425 30.8936 132.943 30.3193 133.611 29.9209C134.279 29.5166 135.047 29.3145 135.914 29.3145C137.197 29.3145 138.237 29.7275 139.034 30.5537C139.837 31.3799 140.27 32.4756 140.335 33.8408L140.344 34.3418C140.344 35.2793 140.162 36.1172 139.799 36.8555C139.441 37.5938 138.926 38.165 138.252 38.5693C137.584 38.9736 136.81 39.1758 135.931 39.1758C134.59 39.1758 133.514 38.7305 132.706 37.8398C131.903 36.9434 131.502 35.751 131.502 34.2627V34.1572ZM133.637 34.3418C133.637 35.3203 133.84 36.0879 134.244 36.6445C134.648 37.1953 135.211 37.4707 135.931 37.4707C136.652 37.4707 137.212 37.1895 137.61 36.627C138.014 36.0645 138.217 35.2412 138.217 34.1572C138.217 33.1963 138.009 32.4346 137.593 31.8721C137.182 31.3096 136.623 31.0283 135.914 31.0283C135.217 31.0283 134.663 31.3066 134.253 31.8633C133.843 32.4141 133.637 33.2402 133.637 34.3418Z" fill="#1F4373"/>
<g clip-path="url(#clip0)">
<path d="M25.3179 17C25.3179 25.5448 15.1906 37 15.1906 37C15.1906 37 5.06348 25.7318 5.06348 17C5.06348 11.4772 9.59768 7 15.1909 7C20.7841 7 25.3183 11.4772 25.3183 17H25.3179Z" fill="#FFC700"/>
<path d="M15.1907 23.3921C18.874 23.3921 21.86 20.4438 21.86 16.8068C21.86 13.1698 18.874 10.2214 15.1907 10.2214C11.5074 10.2214 8.52148 13.1698 8.52148 16.8068C8.52148 20.4438 11.5074 23.3921 15.1907 23.3921Z" fill="#EEEFEE"/>
</g>
<defs>
<clipPath id="clip0">
<rect width="30.3822" height="30" fill="white" transform="translate(0 7)"/>
</clipPath>
</defs>
</svg>
