<svg width="70" height="70" viewBox="0 0 70 70" fill="none" xmlns="http://www.w3.org/2000/svg">
<path d="M35.0001 59.15C48.3378 59.15 59.1501 48.3377 59.1501 35C59.1501 21.6623 48.3378 10.85 35.0001 10.85C21.6624 10.85 10.8501 21.6623 10.8501 35C10.8501 48.3377 21.6624 59.15 35.0001 59.15Z" fill="#345580"/>
<path d="M52.7018 18.0403C48.077 13.213 41.6781 10.4888 34.9929 10.5011C21.483 10.484 10.517 21.4223 10.5 34.9324C10.4916 41.6127 13.2156 48.0057 18.0393 52.6272C18.0533 52.6411 18.0586 52.6621 18.0725 52.6744C18.2142 52.8109 18.3681 52.9264 18.5116 53.0576C18.9053 53.4074 19.2989 53.7696 19.7135 54.1072C19.9356 54.2822 20.1666 54.4571 20.394 54.618C20.7859 54.9102 21.1778 55.2023 21.5871 55.4718C21.8653 55.6468 22.1522 55.8216 22.4373 55.9966C22.8151 56.2241 23.1913 56.4532 23.5814 56.6614C23.9121 56.8363 24.2497 56.9867 24.5856 57.1459C24.953 57.3209 25.3151 57.4958 25.6912 57.6532C26.0673 57.8106 26.4452 57.9331 26.8266 58.0696C27.2079 58.206 27.5368 58.332 27.9024 58.4439C28.3153 58.5682 28.7387 58.6643 29.1585 58.7675C29.5084 58.8532 29.8478 58.9512 30.2082 59.0212C30.691 59.1175 31.1809 59.1787 31.6707 59.2452C31.9734 59.2872 32.2691 59.3467 32.5752 59.3764C33.3764 59.4551 34.1846 59.4989 34.9998 59.4989C35.815 59.4989 36.6233 59.4551 37.4245 59.3764C37.7307 59.3467 38.0263 59.2872 38.3289 59.2452C38.8188 59.1787 39.3085 59.1175 39.7914 59.0212C40.1413 58.9512 40.4912 58.8463 40.8411 58.7675C41.2609 58.6643 41.6843 58.5681 42.0972 58.4439C42.4628 58.332 42.8162 58.1956 43.1731 58.0696C43.53 57.9436 43.9358 57.8072 44.3084 57.6532C44.681 57.4992 45.0467 57.319 45.414 57.1459C45.75 56.9867 46.0876 56.8362 46.4182 56.6614C46.8083 56.4532 47.1844 56.224 47.5624 55.9966C47.8475 55.8216 48.1344 55.6624 48.4125 55.4718C48.8219 55.2024 49.2138 54.9103 49.6056 54.618C49.833 54.443 50.0639 54.2856 50.2861 54.1072C50.7008 53.7748 51.0944 53.4215 51.488 53.0576C51.6314 52.9264 51.7854 52.811 51.9271 52.6744C51.9411 52.6622 51.9464 52.6412 51.9603 52.6272C61.7162 43.2809 62.048 27.7959 52.7018 18.0403ZM48.7698 50.7955C48.4514 51.0754 48.1224 51.3413 47.7901 51.5985C47.5942 51.749 47.3982 51.8976 47.197 52.0411C46.8804 52.2703 46.5585 52.4872 46.2313 52.6954C45.9934 52.8476 45.7503 52.9945 45.5053 53.138C45.1974 53.313 44.8842 53.4879 44.5676 53.6629C44.2876 53.8063 44.0024 53.9411 43.7156 54.074C43.4288 54.207 43.1121 54.3486 42.8024 54.4729C42.4927 54.5971 42.1639 54.7143 41.8402 54.8227C41.5446 54.9242 41.2489 55.0292 40.9497 55.1183C40.5999 55.2233 40.2342 55.309 39.8721 55.3965C39.5887 55.463 39.3088 55.5382 39.0219 55.5943C38.6073 55.6747 38.1839 55.7307 37.7588 55.7884C37.5174 55.8199 37.2778 55.8637 37.0345 55.8882C36.3627 55.9528 35.6822 55.9914 34.9947 55.9914C34.3072 55.9914 33.6267 55.9529 32.9548 55.8882C32.7117 55.8637 32.472 55.8199 32.2305 55.7884C31.8054 55.7307 31.3821 55.6747 30.9675 55.5943C30.6805 55.5383 30.4006 55.4631 30.1173 55.3965C29.7551 55.3091 29.3947 55.2216 29.0396 55.1183C28.7405 55.0292 28.4448 54.9242 28.1492 54.8227C27.8256 54.7108 27.5019 54.597 27.187 54.4729C26.8721 54.3486 26.5747 54.2122 26.2737 54.074C25.9728 53.9358 25.7017 53.8064 25.4218 53.6629C25.1052 53.4985 24.792 53.3252 24.4841 53.138C24.2392 52.9946 23.996 52.8476 23.7581 52.6954C23.431 52.4872 23.109 52.2703 22.7924 52.0411C22.5911 51.8977 22.3952 51.749 22.1993 51.5985C21.8668 51.3413 21.538 51.0737 21.2196 50.7955C21.1426 50.7378 21.0726 50.6643 20.9975 50.5978C21.0757 44.6466 24.8988 39.3918 30.5371 37.4858C33.3563 38.8269 36.6295 38.8269 39.4487 37.4858C45.087 39.3918 48.9101 44.6465 48.9884 50.5978C48.9149 50.6643 48.8449 50.7308 48.7698 50.7955ZM28.8925 24.5277C30.7867 21.159 35.0531 19.9636 38.4219 21.8578C41.7906 23.752 42.9859 28.0184 41.0917 31.3871C40.4632 32.5049 39.5397 33.4284 38.4219 34.057C38.4131 34.057 38.4026 34.057 38.3921 34.0674C37.9282 34.3257 37.4379 34.5333 36.9296 34.6868C36.8387 34.713 36.7546 34.748 36.6585 34.7707C36.4835 34.8162 36.2998 34.8477 36.1196 34.8792C35.7803 34.9385 35.437 34.973 35.0927 34.9824H34.8932C34.5489 34.973 34.2056 34.9385 33.8663 34.8792C33.6913 34.8477 33.5059 34.8162 33.3275 34.7707C33.2348 34.748 33.1526 34.713 33.0564 34.6868C32.5481 34.5333 32.0578 34.3258 31.5939 34.0674L31.5624 34.057C28.1937 32.1628 26.9984 27.8964 28.8925 24.5277ZM52.0919 47.1288C50.9692 41.8925 47.5211 37.4533 42.7254 35.07C46.6458 30.7996 46.3618 24.1596 42.0913 20.2393C37.8209 16.319 31.1809 16.6029 27.2606 20.8734C23.5751 24.8881 23.5751 31.0554 27.2606 35.07C22.4648 37.4534 19.0168 41.8925 17.8941 47.1288C11.1858 37.6795 13.4077 24.5812 22.8569 17.8728C32.3062 11.1645 45.4045 13.3864 52.1129 22.8356C54.6346 26.3877 55.9883 30.6367 55.9861 34.993C55.9861 39.3454 54.6245 43.5889 52.0919 47.1288Z" fill="white"/>
<path d="M51 59C55.4183 59 59 55.4183 59 51C59 46.5817 55.4183 43 51 43C46.5817 43 43 46.5817 43 51C43 55.4183 46.5817 59 51 59Z" fill="#EBEFF2"/>
<path d="M50.9999 54.1921C50.7991 54.1921 50.5984 54.1155 50.4454 53.9625L45.6297 49.1467C45.3233 48.8404 45.3233 48.3437 45.6297 48.0375C45.9359 47.7313 46.4325 47.7313 46.7388 48.0375L50.9999 52.2988L55.2609 48.0376C55.5673 47.7314 56.0638 47.7314 56.37 48.0376C56.6765 48.3439 56.6765 48.8406 56.37 49.1469L51.5543 53.9627C51.4012 54.1157 51.2005 54.1921 50.9999 54.1921Z" fill="#1F4373"/>
</svg>
