<svg width="30" height="30" viewBox="0 0 30 30" fill="none" xmlns="http://www.w3.org/2000/svg">
<g clip-path="url(#clip0)">
<path d="M29.3645 28.1807H0.635526C0.284557 28.1807 0 27.8961 0 27.5451C0 27.1942 0.284557 26.9096 0.635526 26.9096H29.3645C29.7154 26.9096 30 27.1942 30 27.5451C30 27.8961 29.7154 28.1807 29.3645 28.1807ZM28.1989 25.284C27.8479 25.284 27.5634 24.9995 27.5634 24.6485V10.6045H11.7385C11.3875 10.6045 11.103 10.3199 11.103 9.96896C11.103 9.61799 11.3875 9.33343 11.7385 9.33343H28.199C28.55 9.33343 28.8345 9.61799 28.8345 9.96896V24.6484C28.8344 24.9995 28.55 25.284 28.1989 25.284ZM6.1256 25.284C5.77463 25.284 5.49007 24.9995 5.49007 24.6485V14.2362C5.49007 13.8852 5.77463 13.6007 6.1256 13.6007C6.47656 13.6007 6.76112 13.8852 6.76112 14.2362V24.6484C6.76112 24.9995 6.47656 25.284 6.1256 25.284ZM25.4987 24.0189H22.9102C22.5593 24.0189 22.2747 23.7344 22.2747 23.3834V19.6869C22.2747 19.3359 22.5593 19.0513 22.9102 19.0513H25.4987C25.8497 19.0513 26.1343 19.3359 26.1343 19.6869V23.3834C26.1343 23.7344 25.8497 24.0189 25.4987 24.0189ZM23.5458 22.7479H24.8632V20.3224H23.5458V22.7479ZM20.3115 24.0189H17.723C17.372 24.0189 17.0875 23.7344 17.0875 23.3834V19.6869C17.0875 19.3359 17.372 19.0513 17.723 19.0513H20.3115C20.6625 19.0513 20.947 19.3359 20.947 19.6869V23.3834C20.947 23.7344 20.6625 24.0189 20.3115 24.0189ZM18.3585 22.7479H19.676V20.3224H18.3585V22.7479ZM15.1242 24.0189H12.5356C12.1846 24.0189 11.9001 23.7344 11.9001 23.3834V19.6869C11.9001 19.3359 12.1846 19.0513 12.5356 19.0513H15.1242C15.4751 19.0513 15.7597 19.3359 15.7597 19.6869V23.3834C15.7597 23.7344 15.4751 24.0189 15.1242 24.0189ZM13.1711 22.7479H14.4886V20.3224H13.1711V22.7479ZM3.31466 21.399C3.10772 21.399 2.90475 21.298 2.78273 21.112C2.38727 20.5093 2.16452 19.8175 2.1337 19.1013C0.841516 18.4141 0 17.0459 0 15.569C0 14.0922 0.841516 12.7241 2.13362 12.0368C2.2241 9.91327 3.98006 8.21348 6.1256 8.21348C8.27105 8.21348 10.0269 9.91319 10.1175 12.0367C11.4097 12.724 12.2512 14.0922 12.2512 15.569C12.2512 17.0458 11.4096 18.414 10.1174 19.1012C10.0867 19.814 9.86574 20.503 9.47363 21.1038C9.28186 21.3978 8.88807 21.4806 8.59414 21.2888C8.30021 21.0969 8.21735 20.7032 8.4092 20.4093C8.69765 19.9672 8.85009 19.4554 8.85009 18.929C8.85009 18.8687 8.84787 18.8073 8.84334 18.7414C8.82428 18.4648 8.98665 18.2078 9.2446 18.1062C10.2826 17.6977 10.9801 16.678 10.9801 15.569C10.9801 14.46 10.2826 13.4402 9.2446 13.0317C8.98665 12.9302 8.8242 12.6732 8.84334 12.3966C8.84787 12.3306 8.85009 12.2692 8.85009 12.2089C8.85009 10.7066 7.6279 9.48445 6.12568 9.48445C4.62337 9.48445 3.4011 10.7066 3.4011 12.2089C3.4011 12.2697 3.40332 12.3328 3.40777 12.3963C3.42699 12.673 3.26462 12.9301 3.00651 13.0317C1.96846 13.4404 1.27105 14.46 1.27105 15.569C1.27105 16.6782 1.96846 17.6978 3.00651 18.1063C3.26446 18.2078 3.42691 18.4648 3.40777 18.7414C3.40324 18.8074 3.40102 18.8688 3.40102 18.9291C3.40102 19.4578 3.55473 19.9716 3.84549 20.4148C4.03805 20.7082 3.95623 21.1023 3.66277 21.2948C3.55521 21.3653 3.4343 21.399 3.31466 21.399ZM25.4987 17.3718H22.9102C22.5593 17.3718 22.2747 17.0872 22.2747 16.7363V13.0397C22.2747 12.6888 22.5593 12.4042 22.9102 12.4042H25.4987C25.8497 12.4042 26.1343 12.6888 26.1343 13.0397V16.7363C26.1343 17.0872 25.8497 17.3718 25.4987 17.3718ZM23.5458 16.1007H24.8632V13.6753H23.5458V16.1007ZM20.3115 17.3718H17.723C17.372 17.3718 17.0875 17.0872 17.0875 16.7363V13.0397C17.0875 12.6888 17.372 12.4042 17.723 12.4042H20.3115C20.6625 12.4042 20.947 12.6888 20.947 13.0397V16.7363C20.947 17.0872 20.6625 17.3718 20.3115 17.3718ZM18.3585 16.1007H19.676V13.6753H18.3585V16.1007ZM15.1242 17.3718H13.9204C13.5694 17.3718 13.2849 17.0872 13.2849 16.7363C13.2849 16.3853 13.5694 16.1007 13.9204 16.1007H14.4886V13.6753H13.9204C13.5694 13.6753 13.2849 13.3907 13.2849 13.0397C13.2849 12.6888 13.5694 12.4042 13.9204 12.4042H15.1242C15.4751 12.4042 15.7597 12.6888 15.7597 13.0397V16.7363C15.7597 17.0872 15.4751 17.3718 15.1242 17.3718ZM26.3329 8.18631C25.982 8.18631 25.6974 7.90175 25.6974 7.55078V3.09027H16.6644V7.55078C16.6644 7.90175 16.3798 8.18631 16.0288 8.18631C15.6779 8.18631 15.3933 7.90175 15.3933 7.55078V2.45474C15.3933 2.10377 15.6779 1.81921 16.0288 1.81921H26.3329C26.6839 1.81921 26.9685 2.10377 26.9685 2.45474V7.55078C26.9685 7.90183 26.684 8.18631 26.3329 8.18631ZM23.6891 7.15183C23.3382 7.15183 23.0536 6.86727 23.0536 6.5163V5.28053C23.0536 4.92956 23.3382 4.645 23.6891 4.645C24.0401 4.645 24.3247 4.92956 24.3247 5.28053V6.51623C24.3247 6.86727 24.0401 7.15183 23.6891 7.15183ZM21.1808 7.15183C20.8298 7.15183 20.5453 6.86727 20.5453 6.5163V5.28053C20.5453 4.92956 20.8298 4.645 21.1808 4.645C21.5318 4.645 21.8163 4.92956 21.8163 5.28053V6.51623C21.8163 6.86727 21.5318 7.15183 21.1808 7.15183ZM18.6727 7.15183C18.3217 7.15183 18.0372 6.86727 18.0372 6.5163V5.28053C18.0372 4.92956 18.3217 4.645 18.6727 4.645C19.0237 4.645 19.3082 4.92956 19.3082 5.28053V6.51623C19.3082 6.86727 19.0237 7.15183 18.6727 7.15183Z" fill="#EBEFF2"/>
</g>
<defs>
<clipPath id="clip0">
<rect width="30" height="30" fill="white"/>
</clipPath>
</defs>
</svg>
