<svg width="169" height="50" viewBox="0 0 169 50" fill="none" xmlns="http://www.w3.org/2000/svg">
<path d="M62.4189 28.3633H57.7959L56.917 31H54.1133L58.8769 18.2031H61.3203L66.1103 31H63.3066L62.4189 28.3633ZM58.5078 26.2275H61.707L60.0986 21.4375L58.5078 26.2275ZM69.9424 28.8818H75.541V31H67.3056V18.2031H69.9424V28.8818ZM84.7607 25.4541H79.6982V28.8818H85.6396V31H77.0615V18.2031H85.6221V20.3389H79.6982V23.3887H84.7607V25.4541ZM91.9238 26.3154H89.8232V31H87.1865V18.2031H91.9414C93.4531 18.2031 94.6191 18.54 95.4394 19.2139C96.2598 19.8877 96.6699 20.8398 96.6699 22.0703C96.6699 22.9434 96.4795 23.6729 96.0986 24.2588C95.7236 24.8389 95.1523 25.3018 94.3848 25.6475L97.1533 30.877V31H94.3232L91.9238 26.3154ZM89.8232 24.1797H91.9502C92.6123 24.1797 93.125 24.0127 93.4883 23.6787C93.8515 23.3389 94.0332 22.873 94.0332 22.2812C94.0332 21.6777 93.8603 21.2031 93.5146 20.8574C93.1748 20.5117 92.6504 20.3389 91.9414 20.3389H89.8232V24.1797ZM107.876 20.3389H103.956V31H101.319V20.3389H97.4521V18.2031H107.876V20.3389ZM115.558 28.3633H110.935L110.056 31H107.252L112.016 18.2031H114.459L119.249 31H116.445L115.558 28.3633ZM111.646 26.2275H114.846L113.237 21.4375L111.646 26.2275Z" fill="#1F4373"/>
<path d="M133.689 18.2031V26.6318C133.689 28.0322 133.25 29.1396 132.371 29.9541C131.498 30.7686 130.302 31.1758 128.785 31.1758C127.291 31.1758 126.104 30.7803 125.225 29.9893C124.346 29.1982 123.898 28.1113 123.88 26.7285V18.2031H126.517V26.6494C126.517 27.4873 126.716 28.0996 127.115 28.4863C127.519 28.8672 128.076 29.0576 128.785 29.0576C130.267 29.0576 131.02 28.2783 131.044 26.7197V18.2031H133.689ZM143.55 25.7705H138.488V31H135.851V18.2031H144.183V20.3389H138.488V23.6436H143.55V25.7705ZM153.412 25.4541H148.349V28.8818H154.291V31H145.713V18.2031H154.273V20.3389H148.349V23.3887H153.412V25.4541ZM162.473 27.6426C162.473 27.1445 162.297 26.7637 161.946 26.5C161.594 26.2305 160.962 25.9492 160.047 25.6562C159.133 25.3574 158.41 25.0645 157.877 24.7773C156.423 23.9922 155.697 22.9346 155.697 21.6045C155.697 20.9131 155.89 20.2979 156.277 19.7588C156.67 19.2139 157.229 18.7891 157.956 18.4844C158.688 18.1797 159.508 18.0273 160.417 18.0273C161.331 18.0273 162.145 18.1943 162.86 18.5283C163.575 18.8564 164.129 19.3223 164.521 19.9258C164.92 20.5293 165.119 21.2148 165.119 21.9824H162.482C162.482 21.3965 162.297 20.9424 161.928 20.6201C161.559 20.292 161.041 20.1279 160.373 20.1279C159.728 20.1279 159.227 20.2656 158.87 20.541C158.512 20.8105 158.334 21.168 158.334 21.6133C158.334 22.0293 158.542 22.3779 158.958 22.6592C159.38 22.9404 159.998 23.2041 160.812 23.4502C162.312 23.9014 163.405 24.4609 164.09 25.1289C164.776 25.7969 165.119 26.6289 165.119 27.625C165.119 28.7324 164.7 29.6025 163.862 30.2354C163.024 30.8623 161.896 31.1758 160.478 31.1758C159.494 31.1758 158.597 30.9971 157.789 30.6396C156.98 30.2764 156.362 29.7812 155.934 29.1543C155.512 28.5273 155.301 27.8008 155.301 26.9746H157.947C157.947 28.3867 158.791 29.0928 160.478 29.0928C161.105 29.0928 161.594 28.9668 161.946 28.7148C162.297 28.457 162.473 28.0996 162.473 27.6426Z" fill="#819096"/>
<g clip-path="url(#clip0)">
<g filter="url(#filter0_d)">
<path d="M23.4848 46.9697C36.0368 46.9697 46.2121 36.7943 46.2121 24.2424C46.2121 11.6905 36.0368 1.51515 23.4848 1.51515C10.9329 1.51515 0.757568 11.6905 0.757568 24.2424C0.757568 36.7943 10.9329 46.9697 23.4848 46.9697Z" fill="#E9EAEC"/>
<path d="M23.4848 46.9697C36.0368 46.9697 46.2121 36.7943 46.2121 24.2424C46.2121 11.6905 36.0368 1.51515 23.4848 1.51515C10.9329 1.51515 0.757568 11.6905 0.757568 24.2424C0.757568 36.7943 10.9329 46.9697 23.4848 46.9697Z" fill="url(#paint0_linear)"/>
</g>
<path d="M19.8765 8.52273C21.4802 5.74495 25.4896 5.74495 27.0933 8.52273L38.9028 28.9773C40.5066 31.7551 38.5019 35.2273 35.2944 35.2273H11.6754C8.46792 35.2273 6.46326 31.7551 8.06701 28.9773L19.8765 8.52273Z" fill="white" stroke="#E30514"/>
<path d="M20.8605 9.09091C22.0268 7.0707 24.9428 7.0707 26.1091 9.09091L37.9186 29.5455C39.085 31.5657 37.627 34.0909 35.2943 34.0909H11.6753C9.3426 34.0909 7.88464 31.5657 9.05101 29.5455L20.8605 9.09091Z" fill="#E30514"/>
<path d="M24.8077 25.5771H22.677L22.3752 16.6193H25.1095L24.8077 25.5771ZM23.7423 26.9798C24.1744 26.9798 24.5206 27.107 24.781 27.3615C25.0474 27.616 25.1806 27.9415 25.1806 28.338C25.1806 28.7287 25.0474 29.0513 24.781 29.3058C24.5206 29.5602 24.1744 29.6875 23.7423 29.6875C23.3162 29.6875 22.97 29.5602 22.7037 29.3058C22.4432 29.0513 22.313 28.7287 22.313 28.338C22.313 27.9474 22.4432 27.6249 22.7037 27.3704C22.97 27.11 23.3162 26.9798 23.7423 26.9798Z" fill="white"/>
</g>
<defs>
<filter id="filter0_d" x="-2.24243" y="-2.48485" width="55.4545" height="55.4545" filterUnits="userSpaceOnUse" color-interpolation-filters="sRGB">
<feFlood flood-opacity="0" result="BackgroundImageFix"/>
<feColorMatrix in="SourceAlpha" type="matrix" values="0 0 0 0 0 0 0 0 0 0 0 0 0 0 0 0 0 0 127 0"/>
<feOffset dx="2" dy="1"/>
<feGaussianBlur stdDeviation="2.5"/>
<feColorMatrix type="matrix" values="0 0 0 0 0 0 0 0 0 0 0 0 0 0 0 0 0 0 0.25 0"/>
<feBlend mode="normal" in2="BackgroundImageFix" result="effect1_dropShadow"/>
<feBlend mode="normal" in="SourceGraphic" in2="effect1_dropShadow" result="shape"/>
</filter>
<linearGradient id="paint0_linear" x1="0.757568" y1="24.2424" x2="46.2121" y2="24.2424" gradientUnits="userSpaceOnUse">
<stop stop-color="#E9EAEC"/>
<stop offset="1" stop-color="#97AAB1" stop-opacity="0"/>
</linearGradient>
<clipPath id="clip0">
<rect width="50" height="50" fill="white"/>
</clipPath>
</defs>
</svg>
