<svg width="31" height="30" viewBox="0 0 31 30" fill="none" xmlns="http://www.w3.org/2000/svg">
<g clip-path="url(#clip0)">
<path d="M26.3799 23.8742C26.2917 23.817 25.628 23.352 24.9634 21.9455C23.743 19.3625 23.4868 15.724 23.4868 13.1265C23.4868 13.1152 23.4866 13.104 23.4862 13.0927C23.4729 9.65977 21.4172 6.70043 18.4756 5.37264V3.34195C18.4756 1.49918 16.9789 0 15.1392 0H14.8626C13.0229 0 11.5262 1.49918 11.5262 3.34195V5.37252C8.57472 6.70459 6.51497 9.67904 6.51497 13.1265C6.51497 15.724 6.2588 19.3625 5.03835 21.9455C4.37384 23.352 3.71015 23.8169 3.62191 23.8742C3.2503 24.0462 3.06708 24.4434 3.15257 24.846C3.23888 25.2526 3.61892 25.5329 4.03394 25.5329H10.4761C10.5121 28.0021 12.5274 30 15.0009 30C17.4745 30 19.4897 28.0021 19.5257 25.5329H25.9679C26.3829 25.5329 26.763 25.2526 26.8493 24.846C26.9347 24.4434 26.7515 24.0461 26.3799 23.8742ZM13.2841 3.34195C13.2841 2.47002 13.9922 1.76068 14.8627 1.76068H15.1392C16.0097 1.76068 16.7178 2.47002 16.7178 3.34195V4.80193C16.1631 4.68727 15.5888 4.62691 15.0007 4.62691C14.4128 4.62691 13.8387 4.68721 13.2841 4.80176V3.34195H13.2841ZM15.0009 28.2393C13.4967 28.2393 12.2696 27.0313 12.234 25.533H17.7678C17.7322 27.0312 16.5052 28.2393 15.0009 28.2393ZM18.54 23.7722C18.5398 23.7722 6.03696 23.7722 6.03696 23.7722C6.18901 23.5352 6.34376 23.2669 6.49757 22.9637C7.67554 20.6409 8.27284 17.3312 8.27284 13.1265C8.27284 9.41062 11.2909 6.3876 15.0006 6.3876C18.7103 6.3876 21.7284 9.41062 21.7284 13.1294C21.7284 13.1402 21.7286 13.151 21.729 13.1618C21.7324 17.3496 22.3296 20.6474 23.5043 22.9637C23.6581 23.267 23.8129 23.5352 23.9649 23.7722H18.54Z" fill="#345580"/>
</g>
<circle cx="23" cy="8" r="8" fill="#D9042B"/>
<path d="M23.9561 13H21.9805V5.38477L19.6221 6.11621V4.50977L23.7441 3.0332H23.9561V13Z" fill="white"/>
<defs>
<clipPath id="clip0">
<rect width="30" height="30" fill="white"/>
</clipPath>
</defs>
</svg>
